<svg xmlns="http://www.w3.org/2000/svg" xmlns:xlink="http://www.w3.org/1999/xlink" viewBox="0 0 279 68" preserveAspectRatio="xMidYMid" style="display: block; shape-rendering: auto; background: transparent;" width="279" height="68"><style type="text/css">
  .ld-text text {
    text-anchor: middle;
    dominant-baseline: middle;
    font-size: 59px;
    opacity: 0;
    user-select: none;
    pointer-events: none;
  }
</style>
<g style="transform-origin:139.5px 34px;transform:scale(1)" class="ld-text">
<g transform="translate(139.5,34)">
  <g transform="scale(0.7375) translate(0,0)"><g class="path" style="opacity: 1; transform-origin: -161.4px 11.32px; transform: matrix3d(1, 0, 0, 0, 0, 1, 0, 0, 0, 0, 1, 0, 0, 0, 0, 1); animation: 1.69492s linear -0.938722s infinite normal forwards running animate-1fcdax0gh0x; transform-box: view-box;"><path d="M23.20-2.79L23.20-2.79Q16.88 5.13 14.08 13.05L14.08 13.05L14.16 13.05Q25.28 13.05 26.92 13.09Q28.56 13.13 28.72 12.97Q28.88 12.81 28.96 12.57L28.96 12.57Q27.60 2.73 26.80-0.83Q26-4.39 25.20-4.39Q24.40-4.39 23.20-2.79 zM16.08 34.89L16.08 34.89L17.84 34.57Q18.64 34.57 18.64 35.45L18.64 35.45Q18.64 38.25 17.52 40.17Q16.40 42.09 14.72 42.89L14.72 42.89Q12 44.25 10.08 44.25L10.08 44.25Q6.40 44.25 4.56 41.49Q2.72 38.73 2.72 33.17Q2.72 27.61 5.76 18.73L5.76 18.73L1.12 18.73Q0.24 18.73 0.24 17.85Q0.24 16.97 1.60 15.01Q2.96 13.05 4.48 13.05L4.48 13.05L8.08 13.05Q13.76 0.41 21.44-8.79L21.44-8.79Q23.44-11.19 26.36-13.27Q29.28-15.35 30.88-15.35Q32.48-15.35 33.28-13.91L33.28-13.91Q35.36-10.55 38.16 10.65L38.16 10.65Q39.12 19.77 41.48 29.49Q43.84 39.21 45.84 40.81L45.84 40.81Q46.32 41.13 46.32 41.61L46.32 41.61Q46.32 42.81 42.92 43.85Q39.52 44.89 37.72 44.89Q35.92 44.89 34.96 44.45Q34 44.01 33.76 43.53L33.76 43.53Q32.32 40.41 30.88 28.65L30.88 28.65L30.40 24.89Q30.08 21.13 29.76 19.21L29.76 19.21L29.20 18.81L12.48 18.73Q11.52 22.81 11.52 25.85Q11.52 28.89 11.72 30.29Q11.92 31.69 13.04 33.29Q14.16 34.89 16.08 34.89" style="fill: rgb(240, 158, 190);" transform="translate(-184.680,-21.526)"></path></g><g class="path" style="opacity: 1; transform-origin: -124.24px 15.35px; transform: matrix3d(1, 0, 0, 0, 0, 1, 0, 0, 0, 0, 1, 0, 0, 0, 0, 1); animation: 1.69492s linear -0.860495s infinite normal forwards running animate-1fcdax0gh0x; transform-box: view-box;"><path d="M73.60 33.85L73.60 33.85Q73.60 38.41 69.96 41.41Q66.32 44.41 61.28 44.41L61.28 44.41Q53.92 44.41 50.48 39.97Q47.04 35.53 47.04 27.93L47.04 27.93Q47.04 19.85 50.64 13.61L50.64 13.61Q52.40 10.41 55.68 8.57Q58.96 6.73 63.36 6.73L63.36 6.73Q70 6.73 72.72 11.21L72.72 11.21Q73.84 13.05 73.84 15.53L73.84 15.53Q73.84 19.37 70.64 21.29L70.64 21.29Q69.36 22.01 68.28 22.01Q67.20 22.01 66.52 21.89Q65.84 21.77 64.72 20.81Q63.60 19.85 63.60 18.17L63.60 18.17Q63.68 17.29 64.96 16.73L64.96 16.73Q66.16 16.01 66.16 14.17L66.16 14.17Q66.16 11.05 62.32 11.05L62.32 11.05Q61.36 11.05 60.04 11.89Q58.72 12.73 57.84 14.05Q56.96 15.37 56.20 18.21Q55.44 21.05 55.44 23.65Q55.44 26.25 55.64 27.57Q55.84 28.89 56.52 31.17Q57.20 33.45 59.08 34.89Q60.96 36.33 63.76 36.33L63.76 36.33Q67.12 36.33 69.68 33.53L69.68 33.53Q70.72 32.41 71.36 30.81L71.36 30.81Q71.68 30.17 72.16 30.17L72.16 30.17Q72.88 30.17 73.24 31.49Q73.60 32.81 73.60 33.85" style="fill: rgb(240, 158, 190);" transform="translate(-184.680,-21.526)"></path></g><g class="path" style="opacity: 1; transform-origin: -93.24px 11.72px; transform: matrix3d(1, 0, 0, 0, 0, 1, 0, 0, 0, 0, 1, 0, 0, 0, 0, 1); animation: 1.69492s linear -0.782269s infinite normal forwards running animate-1fcdax0gh0x; transform-box: view-box;"><path d="M87.36 0.09L87.36 0.09L87.28 7.85Q87.28 8.33 87.60 8.33Q87.92 8.33 88.24 8.09L88.24 8.09Q90.24 6.73 94.56 6.73L94.56 6.73Q101.84 6.73 104.64 11.69L104.64 11.69Q105.68 13.53 105.68 16.57Q105.68 19.61 105.32 24.97Q104.96 30.33 104.96 32.57L104.96 32.57Q104.96 40.41 107.20 42.97L107.20 42.97Q107.60 43.37 107.60 43.77L107.60 43.77Q107.60 44.57 104.16 44.57L104.16 44.57Q94.88 44.57 94.88 35.93L94.88 35.93Q94.88 32.57 96.48 26.49Q98.08 20.41 98.08 17.53Q98.08 14.65 96.72 13.09Q95.36 11.53 92.96 11.53Q90.56 11.53 89.16 12.57Q87.76 13.61 87.44 14.73L87.44 14.73L87.20 15.77Q87.12 17.29 87.12 25.45Q87.12 33.61 87.52 36.05Q87.92 38.49 87.92 38.81L87.92 38.81Q87.92 41.13 84.80 42.93Q81.68 44.73 78.64 44.73L78.64 44.73Q77.52 44.73 77.52 43.45L77.52 43.45L77.68 41.93Q79.44 28.49 79.44 12.81L79.44 12.81Q79.44 6.73 78.96 0.49L78.96 0.49L78.88-1.27Q78.72-3.51 77.96-5.11Q77.20-6.71 76.56-7.19L76.56-7.19L75.84-7.59Q75.28-7.91 75.28-8.31L75.28-8.31Q75.28-9.43 79.04-11.07Q82.80-12.71 84.84-12.71Q86.88-12.71 87.04-11.83L87.04-11.83Q87.36-7.75 87.36 0.09" style="fill: rgb(240, 158, 190);" transform="translate(-184.680,-21.526)"></path></g><g class="path" style="opacity: 1; transform-origin: -67.88px -21.88px; transform: matrix3d(1, 0, 0, 0, 0, 1, 0, 0, 0, 0, 1, 0, 0, 0, 0, 1); animation: 1.69492s linear -0.704042s infinite normal forwards running animate-1fcdax0gh0x; transform-box: view-box;"><path d="M118.24 0.25L118.24 0.25L116.32 0.17Q114.16 0.17 113.52 1.21L113.52 1.21Q113.36 1.45 113.12 1.45L113.12 1.45Q112.08 1.45 112.08-2.11Q112.08-5.67 113.16-6.63Q114.24-7.59 116.92-7.59Q119.60-7.59 120.56-6.67Q121.52-5.75 121.52-3.59Q121.52-1.43 120.80-0.59Q120.08 0.25 118.24 0.25" style="fill: rgb(240, 158, 190);" transform="translate(-184.680,-21.526)"></path></g><g class="path" style="opacity: 1; transform-origin: -68.92px 15.72px; transform: matrix3d(1, 0, 0, 0, 0, 1, 0, 0, 0, 0, 1, 0, 0, 0, 0, 1); animation: 1.69492s linear -0.625815s infinite normal forwards running animate-1fcdax0gh0x; transform-box: view-box;"><path d="M111.84 40.65L111.84 40.65L112.72 22.01Q112.72 15.37 111.20 12.97L111.20 12.97Q110.72 12.17 110.08 11.77L110.08 11.77Q109.60 11.61 109.60 11.13L109.60 11.13Q109.60 9.69 113.68 8.33Q117.76 6.97 119.64 6.97Q121.52 6.97 121.60 7.93L121.60 7.93Q121.60 9.53 121.16 17.01Q120.72 24.49 120.72 32.73Q120.72 40.97 121.68 42.97L121.68 42.97Q121.92 43.37 121.92 43.77L121.92 43.77Q121.92 44.81 118.88 44.81Q115.84 44.81 112.64 43.21L112.64 43.21Q111.84 42.81 111.84 40.65" style="fill: rgb(240, 158, 190);" transform="translate(-184.680,-21.526)"></path></g><g class="path" style="opacity: 1; transform-origin: -45.36px 15.48px; transform: matrix3d(1, 0, 0, 0, 0, 1, 0, 0, 0, 0, 1, 0, 0, 0, 0, 1); animation: 1.69492s linear -0.547588s infinite normal forwards running animate-1fcdax0gh0x; transform-box: view-box;"><path d="M134.40 22.73L134.40 22.73L134.48 24.73Q134.48 25.21 135.12 25.21L135.12 25.21Q137.68 24.97 139.60 23.89Q141.52 22.81 142.48 21.45L142.48 21.45Q144.40 18.49 144.56 16.33L144.56 16.33L144.64 15.37Q144.64 11.05 141.20 11.05L141.20 11.05Q138.64 11.05 137.04 13.29L137.04 13.29Q134.40 16.81 134.40 22.73 zM151.84 33.37L151.84 33.37Q151.84 36.41 150.60 38.69Q149.36 40.97 147.80 42.05Q146.24 43.13 144.16 43.77L144.16 43.77Q141.52 44.57 139.12 44.57L139.12 44.57Q132.40 44.57 129.20 39.53Q126 34.49 126 26.69Q126 18.89 129.96 12.81Q133.92 6.73 141.84 6.73L141.84 6.73Q149.04 6.73 151.60 11.77L151.60 11.77Q152.64 13.69 152.64 15.41Q152.64 17.13 152.48 18.13Q152.32 19.13 151.36 21.13Q150.40 23.13 148.80 24.73Q147.20 26.33 143.76 27.77Q140.32 29.21 135.68 29.69L135.68 29.69Q135.04 29.69 135.04 30.25L135.04 30.25Q135.04 30.97 135.56 32.37Q136.08 33.77 136.72 34.73L136.72 34.73Q138.48 36.97 141.92 36.97L141.92 36.97Q145.36 36.97 147.76 34.73L147.76 34.73Q149.04 33.53 149.84 31.77L149.84 31.77Q150.16 31.13 150.68 31.13Q151.20 31.13 151.52 32.01Q151.84 32.89 151.84 33.37" style="fill: rgb(240, 158, 190);" transform="translate(-184.680,-21.526)"></path></g><g class="path" style="opacity: 1; transform-origin: -15.96px 16.07px; transform: matrix3d(1, 0, 0, 0, 0, 1, 0, 0, 0, 0, 1, 0, 0, 0, 0, 1); animation: 1.69492s linear -0.469361s infinite normal forwards running animate-1fcdax0gh0x; transform-box: view-box;"><path d="M174.28 8.49Q177.68 6.81 181.04 6.81Q184.40 6.81 184.40 13.77L184.40 13.77Q184.40 18.89 182.52 24.17Q180.64 29.45 177.84 33.45L177.84 33.45Q172.08 41.85 167.44 44.65L167.44 44.65Q166.32 45.29 165.76 45.29Q165.20 45.29 164.60 44.09Q164 42.89 162.76 38.81Q161.52 34.73 160.72 31.53L160.72 31.53L160 28.25Q158.40 21.21 156.88 17.01Q155.36 12.81 154.64 12.17L154.64 12.17L153.84 11.45Q153.04 11.05 153.04 10.49L153.04 10.49L153.44 9.77Q154.48 8.81 156.92 7.81Q159.36 6.81 162.32 6.81L162.32 6.81Q163.68 6.81 164 8.33L164 8.33Q165.20 12.01 166.08 16.97Q166.96 21.93 168.44 28.17Q169.92 34.41 170.88 34.49L170.88 34.49Q171.36 34.49 171.96 33.77Q172.56 33.05 173.40 31.85Q174.24 30.65 175.48 27.21Q176.72 23.77 176.72 21.33Q176.72 18.89 176.52 17.57Q176.32 16.25 175.12 14.49Q173.92 12.73 172.40 12.45Q170.88 12.17 170.88 11.45L170.88 11.45Q170.88 10.17 174.28 8.49" style="fill: rgb(240, 158, 190);" transform="translate(-184.680,-21.526)"></path></g><g class="path" style="opacity: 1; transform-origin: 15.04px 15.48px; transform: matrix3d(1, 0, 0, 0, 0, 1, 0, 0, 0, 0, 1, 0, 0, 0, 0, 1); animation: 1.69492s linear -0.391134s infinite normal forwards running animate-1fcdax0gh0x; transform-box: view-box;"><path d="M194.80 22.73L194.80 22.73L194.88 24.73Q194.88 25.21 195.52 25.21L195.52 25.21Q198.08 24.97 200 23.89Q201.92 22.81 202.88 21.45L202.88 21.45Q204.80 18.49 204.96 16.33L204.96 16.33L205.04 15.37Q205.04 11.05 201.60 11.05L201.60 11.05Q199.04 11.05 197.44 13.29L197.44 13.29Q194.80 16.81 194.80 22.73 zM212.24 33.37L212.24 33.37Q212.24 36.41 211 38.69Q209.76 40.97 208.20 42.05Q206.64 43.13 204.56 43.77L204.56 43.77Q201.92 44.57 199.52 44.57L199.52 44.57Q192.80 44.57 189.60 39.53Q186.40 34.49 186.40 26.69Q186.40 18.89 190.36 12.81Q194.32 6.73 202.24 6.73L202.24 6.73Q209.44 6.73 212 11.77L212 11.77Q213.04 13.69 213.04 15.41Q213.04 17.13 212.88 18.13Q212.72 19.13 211.76 21.13Q210.80 23.13 209.20 24.73Q207.60 26.33 204.16 27.77Q200.72 29.21 196.08 29.69L196.08 29.69Q195.44 29.69 195.44 30.25L195.44 30.25Q195.44 30.97 195.96 32.37Q196.48 33.77 197.12 34.73L197.12 34.73Q198.88 36.97 202.32 36.97L202.32 36.97Q205.76 36.97 208.16 34.73L208.16 34.73Q209.44 33.53 210.24 31.77L210.24 31.77Q210.56 31.13 211.08 31.13Q211.60 31.13 211.92 32.01Q212.24 32.89 212.24 33.37" style="fill: rgb(240, 158, 190);" transform="translate(-184.680,-21.526)"></path></g><g class="path" style="opacity: 1; transform-origin: 55.32px 15.7px; transform: matrix3d(1, 0, 0, 0, 0, 1, 0, 0, 0, 0, 1, 0, 0, 0, 0, 1); animation: 1.69492s linear -0.312907s infinite normal forwards running animate-1fcdax0gh0x; transform-box: view-box;"><path d="M234.72 43.53L234.72 43.53Q235.84 37.93 235.84 27.81Q235.84 17.69 235.76 15.85Q235.68 14.01 234.64 12.89Q233.60 11.77 232.84 11.61Q232.08 11.45 230.72 11.45Q229.36 11.45 228.08 12.69Q226.80 13.93 226.56 15.21L226.56 15.21L226.24 16.49Q226 18.89 226 27.13Q226 35.37 226.36 37.49Q226.72 39.61 226.72 40.33Q226.72 41.05 226.08 41.77L226.08 41.77Q223.36 44.65 218.40 44.65L218.40 44.65Q216.64 44.65 216.64 43.61L216.64 43.61Q218.24 34.01 218.24 19.13L218.24 19.13Q218.24 13.61 218 11.69L218 11.69L217.68 9.13Q217.60 8.25 217.36 7.21L217.36 7.21Q217.36 6.25 219.84 6.25L219.84 6.25Q223.52 6.25 224.72 8.97L224.72 8.97Q224.80 9.29 225.04 9.29Q225.28 9.29 226.16 8.65L226.16 8.65Q228.80 6.57 233.28 6.57L233.28 6.57Q235.84 6.57 238.32 7.53Q240.80 8.49 241.76 10.09L241.76 10.09Q241.84 10.25 242 10.25Q242.16 10.25 242.48 9.93L242.48 9.93Q245.84 6.57 251.20 6.57L251.20 6.57Q258.32 6.57 260.96 11.69L260.96 11.69Q261.92 13.69 261.92 16.73Q261.92 19.77 261.44 25.37Q260.96 30.97 260.96 33.93Q260.96 36.89 261.56 39.29Q262.16 41.69 262.76 42.73Q263.36 43.77 263.36 43.93L263.36 43.93Q263.36 44.97 261.12 44.97L261.12 44.97Q255.60 44.97 253.44 42.73Q251.28 40.49 251.28 36.85Q251.28 33.21 252.76 27.01Q254.24 20.81 254.24 17.69L254.24 17.69Q254.24 11.37 249.12 11.37L249.12 11.37Q246.96 11.37 245.68 12.65Q244.40 13.93 244.16 15.21L244.16 15.21L244 16.49Q243.68 20.17 243.68 25.37Q243.68 30.57 243.84 33.49Q244 36.41 244.16 38.05Q244.32 39.69 244.32 40.01L244.32 40.01Q244.32 42.25 241.52 43.45Q238.72 44.65 236.08 44.65L236.08 44.65Q234.72 44.65 234.72 43.53" style="fill: rgb(240, 158, 190);" transform="translate(-184.680,-21.526)"></path></g><g class="path" style="opacity: 1; transform-origin: 93.84px 15.48px; transform: matrix3d(1, 0, 0, 0, 0, 1, 0, 0, 0, 0, 1, 0, 0, 0, 0, 1); animation: 1.69492s linear -0.234681s infinite normal forwards running animate-1fcdax0gh0x; transform-box: view-box;"><path d="M273.60 22.73L273.60 22.73L273.68 24.73Q273.68 25.21 274.32 25.21L274.32 25.21Q276.88 24.97 278.80 23.89Q280.72 22.81 281.68 21.45L281.68 21.45Q283.60 18.49 283.76 16.33L283.76 16.33L283.84 15.37Q283.84 11.05 280.40 11.05L280.40 11.05Q277.84 11.05 276.24 13.29L276.24 13.29Q273.60 16.81 273.60 22.73 zM291.04 33.37L291.04 33.37Q291.04 36.41 289.80 38.69Q288.56 40.97 287 42.05Q285.44 43.13 283.36 43.77L283.36 43.77Q280.72 44.57 278.32 44.57L278.32 44.57Q271.60 44.57 268.40 39.53Q265.20 34.49 265.20 26.69Q265.20 18.89 269.16 12.81Q273.12 6.73 281.04 6.73L281.04 6.73Q288.24 6.73 290.80 11.77L290.80 11.77Q291.84 13.69 291.84 15.41Q291.84 17.13 291.68 18.13Q291.52 19.13 290.56 21.13Q289.60 23.13 288 24.73Q286.40 26.33 282.96 27.77Q279.52 29.21 274.88 29.69L274.88 29.69Q274.24 29.69 274.24 30.25L274.24 30.25Q274.24 30.97 274.76 32.37Q275.28 33.77 275.92 34.73L275.92 34.73Q277.68 36.97 281.12 36.97L281.12 36.97Q284.56 36.97 286.96 34.73L286.96 34.73Q288.24 33.53 289.04 31.77L289.04 31.77Q289.36 31.13 289.88 31.13Q290.40 31.13 290.72 32.01Q291.04 32.89 291.04 33.37" style="fill: rgb(240, 158, 190);" transform="translate(-184.680,-21.526)"></path></g><g class="path" style="opacity: 1; transform-origin: 125.4px 15.68px; transform: matrix3d(1, 0, 0, 0, 0, 1, 0, 0, 0, 0, 1, 0, 0, 0, 0, 1); animation: 1.69492s linear -0.156454s infinite normal forwards running animate-1fcdax0gh0x; transform-box: view-box;"><path d="M295.44 43.61L295.44 43.61Q296.88 34.97 296.88 22.89Q296.88 10.81 296.16 7.21L296.16 7.21Q296.16 6.17 298.56 6.17L298.56 6.17Q302.24 6.17 303.44 8.97L303.44 8.97Q303.52 9.21 303.84 9.21Q304.16 9.21 304.32 9.05L304.32 9.05Q306.80 6.49 312 6.49Q317.20 6.49 320.24 9.13Q323.28 11.77 323.28 16.81L323.28 16.81Q323.28 19.85 322.76 25.45Q322.24 31.05 322.24 33.77L322.24 33.77Q322.24 40.25 324.40 43.13L324.40 43.13Q324.72 43.53 324.72 43.93L324.72 43.93Q324.72 44.97 322.48 44.97L322.48 44.97Q312.56 44.97 312.56 36.17L312.56 36.17Q312.56 32.81 314.08 26.81Q315.60 20.81 315.60 17.69L315.60 17.69Q315.60 11.29 310.32 11.29L310.32 11.29Q307.76 11.29 306.44 12.81Q305.12 14.33 304.96 16.29Q304.80 18.25 304.80 23.69L304.80 23.69Q304.80 32.01 305.36 38.17L305.36 38.17L305.52 39.93Q305.52 42.17 302.60 43.41Q299.68 44.65 297.56 44.65Q295.44 44.65 295.44 43.61" style="fill: rgb(240, 158, 190);" transform="translate(-184.680,-21.526)"></path></g><g class="path" style="opacity: 1; transform-origin: 150.44px 13.97px; transform: matrix3d(1, 0, 0, 0, 0, 1, 0, 0, 0, 0, 1, 0, 0, 0, 0, 1); animation: 1.69492s linear -0.0782269s infinite normal forwards running animate-1fcdax0gh0x; transform-box: view-box;"><path d="M326.16 11.85L326.16 11.85L326.40 8.65Q326.48 7.93 327.52 7.93L327.52 7.93L330.32 7.93L330 1.53L330 1.21Q330-0.63 332.80-2.31Q335.60-3.99 337.92-3.99L337.92-3.99Q338.64-3.99 338.64-3.35L338.64-3.35L338.64-3.27Q338.32-1.11 338 7.85L338 7.85Q341.52 7.85 342.48 7.69Q343.44 7.53 343.52 7.53L343.52 7.53Q344.08 7.53 344.08 8.49Q344.08 9.45 343.20 10.93Q342.32 12.41 341.28 12.49L341.28 12.49L337.92 12.49Q337.84 15.21 337.84 21.65Q337.84 28.09 337.96 32.25Q338.08 36.41 338.24 38.53Q338.40 40.65 338.60 41.93Q338.80 43.21 338.92 43.77Q339.04 44.33 339.04 44.49L339.04 44.49Q339.04 45.29 338 45.37L338 45.37Q334.88 45.37 331.80 44.49Q328.72 43.61 328.72 41.45L328.72 41.45Q330.40 28.01 330.40 12.57L330.40 12.57Q328.24 12.57 327.12 12.73L327.12 12.73L327.04 12.73Q326.32 12.73 326.16 11.85" style="fill: rgb(240, 158, 190);" transform="translate(-184.680,-21.526)"></path></g><g class="path" style="opacity: 1; transform-origin: 171.96px 15.62px; transform: matrix3d(1, 0, 0, 0, 0, 1, 0, 0, 0, 0, 1, 0, 0, 0, 0, 1); animation: 1.69492s linear 0s infinite normal forwards running animate-1fcdax0gh0x; transform-box: view-box;"><path d="M369.60 32.09L369.60 32.09Q369.60 35.53 368.28 38.09Q366.96 40.65 365.28 41.85Q363.60 43.05 361.28 43.77L361.28 43.77Q358.24 44.73 355.76 44.73L355.76 44.73Q350.56 44.73 347.12 42.69Q343.68 40.65 343.68 36.17L343.68 36.17Q343.68 33.53 345.12 31.85L345.12 31.85Q347.36 29.37 350.48 29.37L350.48 29.37Q351.44 29.37 351.44 30.25L351.44 30.25Q351.44 30.33 351.08 31.49Q350.72 32.65 350.72 34.41Q350.72 36.17 352.12 37.53Q353.52 38.89 355.52 38.89Q357.52 38.89 358.72 38.21Q359.92 37.53 360.40 36.49L360.40 36.49Q361.12 35.05 361.12 33.77L361.12 33.77Q361.12 31.45 358.80 29.77Q356.48 28.09 353.68 27.13Q350.88 26.17 348.56 23.93Q346.24 21.69 346.24 18.33L346.24 18.33Q346.24 12.57 349.88 9.69Q353.52 6.81 359.76 6.81L359.76 6.81Q362.48 6.81 365.48 7.57Q368.48 8.33 368.48 10.13Q368.48 11.93 367.88 13.45Q367.28 14.97 366.40 14.97L366.40 14.97Q365.92 14.97 365.76 14.61Q365.60 14.25 365.20 13.77Q364.80 13.29 363.28 12.53Q361.76 11.77 360.68 11.77Q359.60 11.77 359.24 11.81Q358.88 11.85 358 12.05Q357.12 12.25 356.40 12.65L356.40 12.65Q354.56 13.69 354.56 15.69L354.56 15.69Q354.56 16.97 355.12 17.57Q355.68 18.17 356 18.49Q356.32 18.81 357.12 19.25Q357.92 19.69 358.24 19.85Q358.56 20.01 359.68 20.53Q360.80 21.05 361.12 21.21L361.12 21.21Q369.60 25.21 369.60 32.09" style="fill: rgb(240, 158, 190);" transform="translate(-184.680,-21.526)"></path></g></g><text dy="0.35em" fill="#f09ebe" font-family="Aladin" font-size="59">Achievements</text>
</g>
</g><style type="text/css">@keyframes animate-1fcdax0gh0x { 0.00% {transform: translate(0.00px,0.00px) rotate(0.00deg) scale(1.00, 1.00) skew(0deg, 0.00deg) ;opacity: 1.00;}2.00% {animation-timing-function: cubic-bezier(0.20,0.39,0.50,0.97);transform: translate(0.00px,-1.08px) rotate(0.00deg) ;}36.00% {animation-timing-function: cubic-bezier(0.50,0.03,0.80,0.61);transform: translate(0.00px,-10.00px) rotate(0.00deg) ;}72.00% {transform: translate(0.00px,0.00px) rotate(0.00deg) ;}74.00% {animation-timing-function: cubic-bezier(0.23,0.43,0.48,0.91);transform: translate(0.00px,0.00px) rotate(0.00deg) scale(1.00, 0.95) ;}86.00% {animation-timing-function: cubic-bezier(0.52,0.09,0.77,0.57);transform: translate(0.00px,0.00px) rotate(0.00deg) scale(1.00, 0.80) ;}100.00% {animation-timing-function: cubic-bezier(0.52,0.09,0.77,0.57);transform: translate(0.00px,0.00px) rotate(0.00deg) scale(1.00, 1.00) ;} }</style><!-- [ldio] generated by https://loading.io --></svg>